<svg xmlns="http://www.w3.org/2000/svg" version="1.1" xmlns:xlink="http://www.w3.org/1999/xlink"
	xmlns:svgjs="http://svgjs.dev/svgjs" width="3840" height="2160" preserveAspectRatio="xMidYMid"
	viewBox="0 0 3840 2160">
	<g mask="url(&quot;#SvgjsMask2891&quot;)" fill="none">
		<g transform="translate(0, 0)" stroke-linecap="round"
			stroke="url(&quot;#SvgjsLinearGradient2892&quot;)">
			<path d="M840 871.19 L840 938.69" stroke-width="67.5"></path>
			<path d="M840 1039.94 L840 1107.44" stroke-width="67.5"></path>
			<path d="M840 1208.69 L840 1288.81" stroke-width="67.5"></path>
			<path d="M930 952.35 L930 1207.65" stroke-width="67.5"></path>
			<path d="M1020 718.05 L1020 988.05" stroke-width="67.5"></path>
			<path d="M1020 1089.3 L1020 1156.8" stroke-width="67.5"></path>
			<path d="M1020 1258.05 L1020 1441.95" stroke-width="67.5"></path>
			<path d="M1110 907.49 L1110 1252.51" stroke-width="67.5"></path>
			<path d="M1200 793.35 L1200 1063.35" stroke-width="67.5"></path>
			<path d="M1200 1164.6 L1200 1366.65" stroke-width="67.5"></path>
			<path d="M1290 512.56 L1290 782.56" stroke-width="67.5"></path>
			<path d="M1290 883.81 L1290 1153.81" stroke-width="67.5"></path>
			<path d="M1290 1255.06 L1290 1647.44" stroke-width="67.5"></path>
			<path d="M1380 546.16 L1380 816.16" stroke-width="67.5"></path>
			<path d="M1380 917.41 L1380 1254.9099999999999" stroke-width="67.5"></path>
			<path d="M1380 1356.1599999999999 L1380 1613.84" stroke-width="67.5"></path>
			<path d="M1470 984.47 L1470 1175.53" stroke-width="67.5"></path>
			<path d="M1560 849.21 L1560 916.71" stroke-width="67.5"></path>
			<path d="M1560 1017.96 L1560 1085.46" stroke-width="67.5"></path>
			<path d="M1560 1186.71 L1560 1310.79" stroke-width="67.5"></path>
			<path d="M1650 839.2 L1650 1041.7" stroke-width="67.5"></path>
			<path d="M1650 1142.95 L1650 1320.8" stroke-width="67.5"></path>
			<path d="M1740 864.47 L1740 931.97" stroke-width="67.5"></path>
			<path d="M1740 1033.22 L1740 1295.54" stroke-width="67.5"></path>
			<path d="M1830 664.55 L1830 1069.55" stroke-width="67.5"></path>
			<path d="M1830 1170.8 L1830 1238.3" stroke-width="67.5"></path>
			<path d="M1830 1339.55 L1830 1495.45" stroke-width="67.5"></path>
			<path d="M1920 752.68 L1920 887.68" stroke-width="67.5"></path>
			<path d="M1920 988.93 L1920 1191.4299999999998" stroke-width="67.5"></path>
			<path d="M1920 1292.6799999999998 L1920 1407.32" stroke-width="67.5"></path>
			<path d="M2010 833.98 L2010 1326.03" stroke-width="67.5"></path>
			<path d="M2100 497.86 L2100 632.86" stroke-width="67.5"></path>
			<path d="M2100 734.11 L2100 1341.6100000000001" stroke-width="67.5"></path>
			<path d="M2100 1442.8600000000001 L2100 1662.14" stroke-width="67.5"></path>
			<path d="M2190 564.56 L2190 1037.06" stroke-width="67.5"></path>
			<path d="M2190 1138.31 L2190 1408.31" stroke-width="67.5"></path>
			<path d="M2190 1509.56 L2190 1595.44" stroke-width="67.5"></path>
			<path d="M2280 853.16 L2280 1306.84" stroke-width="67.5"></path>
			<path d="M2370 709.93 L2370 1450.07" stroke-width="67.5"></path>
			<path d="M2460 985.03 L2460 1174.96" stroke-width="67.5"></path>
			<path d="M2550 562.91 L2550 832.91" stroke-width="67.5"></path>
			<path d="M2550 934.16 L2550 1136.6599999999999" stroke-width="67.5"></path>
			<path d="M2550 1237.9099999999999 L2550 1597.09" stroke-width="67.5"></path>
			<path d="M2640 991.62 L2640 1168.38" stroke-width="67.5"></path>
			<path d="M2730 543.54 L2730 948.54" stroke-width="67.5"></path>
			<path d="M2730 1049.79 L2730 1319.79" stroke-width="67.5"></path>
			<path d="M2730 1421.04 L2730 1616.46" stroke-width="67.5"></path>
			<path d="M2820 823.83 L2820 958.83" stroke-width="67.5"></path>
			<path d="M2820 1060.08 L2820 1127.58" stroke-width="67.5"></path>
			<path d="M2820 1228.83 L2820 1336.17" stroke-width="67.5"></path>
			<path d="M2910 575.85 L2910 1584.15" stroke-width="67.5"></path>
			<path d="M3000 889.48 L3000 1270.53" stroke-width="67.5"></path>
		</g>
	</g>
	<defs>
		<mask id="SvgjsMask2891">
			<rect width="3840" height="2160" fill="#ffffff"></rect>
		</mask>
		<linearGradient x1="768" y1="1080" x2="3072" y2="1080" gradientUnits="userSpaceOnUse"
			id="SvgjsLinearGradient2892">
			<stop stop-color="rgba(87, 197, 225, 1)" offset="0"></stop>
			<stop stop-color="rgba(253, 123, 123, 1)" offset="1"></stop>
		</linearGradient>
	</defs>
</svg>